<svg xmlns="http://www.w3.org/2000/svg" xmlns:xlink="http://www.w3.org/1999/xlink" width="119.177" height="92.905" viewBox="0 0 119.177 92.905">
  <defs>
    <clipPath id="clip-path">
      <rect id="SVGID" width="92.775" height="92.905" transform="translate(381.904 147.756)" fill="none"/>
    </clipPath>
  </defs>
  <g id="组_72" data-name="组 72" transform="translate(-947.912 -993)">
    <g id="组_69" data-name="组 69" transform="translate(35.553 73.141)">
      <rect id="矩形_14348" data-name="矩形 14348" width="77.836" height="51.442" rx="20.929" transform="translate(936.653 944.889)" fill="#f94100"/>
      <g id="组_65" data-name="组 65" transform="translate(539.81 772.103)">
        <g id="组_64" data-name="组 64">
          <g id="组_63" data-name="组 63" clip-path="url(#clip-path)">
            <path id="路径_26" data-name="路径 26" d="M396.943,214.2a25.806,25.806,0,0,1-9.588-20.026,26.075,26.075,0,0,1,26.152-26h29.227c.594,0,1.173.05,1.758.09a3.484,3.484,0,0,0,3.163-.948,2.822,2.822,0,0,0,.656-2.893,3.83,3.83,0,0,0-.909-1.373l-14.444-14.466a2.837,2.837,0,0,0-4.009,4.015l10.04,10.053H413.816a31.726,31.726,0,0,0-31.928,31.518,31.3,31.3,0,0,0,12.21,24.759l-.035-.033a2.751,2.751,0,0,0,1.841.731,2.783,2.783,0,0,0,2.782-2.782,2.724,2.724,0,0,0-1.743-2.649Zm65.5-44.53a2.726,2.726,0,0,0-2.135-1.064,2.771,2.771,0,0,0-1.918,4.781,25.942,25.942,0,0,1-15.652,46.784H413.509c-.659,0-1.3-.05-1.951-.1-1.891,0-3.779-.207-4.88.9a2.843,2.843,0,0,0,0,4.013l14.689,14.72a2.835,2.835,0,1,0,4.006-4.013L415.4,225.7h27.25a31.729,31.729,0,0,0,31.931-31.52,31.157,31.157,0,0,0-12.142-24.506Zm0,0" fill="#d3d3d3"/>
          </g>
        </g>
        <path id="路径_27" data-name="路径 27" d="M445.392,202.094h-20.3a1.27,1.27,0,0,0-1.269,1.27V205.9a1.269,1.269,0,0,0,1.269,1.268h20.3a1.269,1.269,0,0,0,1.269-1.268v-2.537a1.27,1.27,0,0,0-1.269-1.27Zm1.269-8.881a1.269,1.269,0,0,0-1.269-1.269h-20.3a1.269,1.269,0,0,0-1.269,1.269v2.538a1.27,1.27,0,0,0,1.269,1.269h20.3a1.269,1.269,0,0,0,1.269-1.269Zm-27.914-10.15a1.269,1.269,0,0,0-1.269-1.269h-2.537a1.269,1.269,0,0,0-1.268,1.269V185.6a1.269,1.269,0,0,0,1.268,1.269h2.537a1.269,1.269,0,0,0,1.269-1.269Zm-1.27,13.957a1.269,1.269,0,0,0,1.269-1.269v-2.538a1.269,1.269,0,0,0-1.269-1.269H414.94a1.269,1.269,0,0,0-1.269,1.269v2.538a1.27,1.27,0,0,0,1.269,1.269Zm-3.806,8.882a1.269,1.269,0,0,0,1.269,1.268h2.537a1.269,1.269,0,0,0,1.269-1.268v-2.538a1.27,1.27,0,0,0-1.269-1.27H414.94a1.27,1.27,0,0,0-1.269,1.27Zm32.99-22.839a1.269,1.269,0,0,0-1.269-1.269h-20.3a1.269,1.269,0,0,0-1.269,1.269V185.6a1.27,1.27,0,0,0,1.269,1.269h20.3a1.269,1.269,0,0,0,1.269-1.269Zm0,0" fill="#d3d3d3"/>
      </g>
      <circle id="椭圆_29" data-name="椭圆 29" cx="2.824" cy="2.824" r="2.824" transform="translate(912.359 981.195)" fill="#f94100"/>
      <path id="路径_39" data-name="路径 39" d="M4.918,0A4.918,4.918,0,1,1,0,4.918,4.918,4.918,0,0,1,4.918,0Z" transform="translate(1021.698 944.06)" fill="#f94100"/>
      <circle id="椭圆_31" data-name="椭圆 31" cx="5.26" cy="5.26" r="5.26" transform="translate(916.454 968.938)" fill="#dc8000"/>
      <circle id="椭圆_32" data-name="椭圆 32" cx="5.156" cy="5.156" r="5.156" transform="translate(1020.913 943.069)" fill="none" stroke="#d3d3d3" stroke-miterlimit="10" stroke-width="0.5"/>
    </g>
  </g>
</svg>
