<svg xmlns="http://www.w3.org/2000/svg" width="97.804" height="92.905" viewBox="0 0 97.804 92.905">
  <g id="组_71" data-name="组 71" transform="translate(-1348.598 -993)">
    <g id="组_70" data-name="组 70">
      <rect id="矩形_14349" data-name="矩形 14349" width="30.616" height="44.314" rx="7.531" transform="translate(1353.781 1041.591)" fill="#f94100"/>
      <path id="路径_28" data-name="路径 28" d="M707.1,236.018a4.888,4.888,0,1,1,4.888-4.887,4.887,4.887,0,0,1-4.888,4.887Z" transform="translate(721.516 847.737)" fill="#f94100"/>
      <path id="路径_29" data-name="路径 29" d="M682.789,236.018a4.888,4.888,0,1,1,4.888-4.887,4.887,4.887,0,0,1-4.888,4.887Z" transform="translate(724.508 847.737)" fill="#f94100"/>
      <g id="组_66" data-name="组 66" transform="translate(1357.024 993)">
        <path id="路径_30" data-name="路径 30" d="M676.468,170.924a5.493,5.493,0,0,1,1.347-.543V142.276a4.19,4.19,0,0,0-4.189-4.19h-39.1a4.192,4.192,0,0,0-4.19,4.19v72.616a4.19,4.19,0,0,0,4.19,4.189H668.04v4.189H634.525a8.378,8.378,0,0,1-8.379-8.378V142.276a8.379,8.379,0,0,1,8.379-8.379h39.1A8.379,8.379,0,0,1,682,142.276v28.676l.044.026,7.091-7.089a8.379,8.379,0,1,1,12.279,1.507l6.689,10.7a5.586,5.586,0,1,1-2.326,1.546l-6.756-10.805a8.391,8.391,0,0,1-7.912-.974l-7.09,7.091a5.586,5.586,0,1,1-9.589-.059l-5.946-8.589a5.586,5.586,0,0,1-6.259-1.85l-13.765,7.212a5.585,5.585,0,1,1-.969-2.645l13.612-7.132.014-.007a5.586,5.586,0,1,1,9.688,2.869l5.656,8.171Z" transform="translate(-626.146 -133.897)" fill="#d3d3d3"/>
        <path id="路径_31" data-name="路径 31" d="M680.517,211.388,678,215.578h26.859a1.4,1.4,0,0,1,0,2.793H675.537a1.4,1.4,0,0,1-1.2-2.114l3.109-5.181a1.4,1.4,0,0,1-.447-.654l-7.369-22.773h-3.871a1.4,1.4,0,0,1,0-2.793h4.887a1.4,1.4,0,0,1,1.329.966l1.947,6.016h33.033a1.4,1.4,0,0,1,1.341,1.788l-4.888,16.757a1.4,1.4,0,0,1-1.341,1Z" transform="translate(-630.85 -140.169)" fill="#d3d3d3"/>
        <path id="路径_32" data-name="路径 32" d="M680.4,234.442a4.888,4.888,0,1,1,4.888-4.887,4.887,4.887,0,0,1-4.888,4.887Z" transform="translate(-632.222 -145.069)" fill="none" stroke="#d3d3d3" stroke-miterlimit="10" stroke-width="2"/>
        <path id="路径_33" data-name="路径 33" d="M705.88,234.442a4.888,4.888,0,1,1,4.887-4.887,4.887,4.887,0,0,1-4.887,4.887Z" transform="translate(-635.358 -145.069)" fill="none" stroke="#d3d3d3" stroke-miterlimit="10" stroke-width="2"/>
        <path id="路径_34" data-name="路径 34" d="M704.985,167.363a5.586,5.586,0,1,0-5.586-5.586,5.586,5.586,0,0,0,5.586,5.586Z" transform="translate(-635.162 -136.641)" fill="#fff"/>
        <path id="路径_35" data-name="路径 35" d="M673.684,168.458a4.541,4.541,0,1,0-4.541-4.542,4.539,4.539,0,0,0,4.541,4.542Z" transform="translate(-631.438 -137.033)" fill="#f94100"/>
        <path id="路径_36" data-name="路径 36" d="M686.268,184.072a2.793,2.793,0,1,0-2.793-2.793,2.792,2.792,0,0,0,2.793,2.793Z" transform="translate(-633.202 -139.385)" fill="#fff"/>
        <path id="路径_37" data-name="路径 37" d="M721.3,190.442a2.793,2.793,0,1,0-2.793-2.793,2.793,2.793,0,0,0,2.793,2.793Z" transform="translate(-637.514 -140.169)" fill="#fff"/>
        <path id="路径_38" data-name="路径 38" d="M721.694,191.226" transform="translate(-637.906 -140.953)" fill="#090506"/>
        <circle id="椭圆_33" data-name="椭圆 33" cx="3.378" cy="3.378" r="3.378" transform="translate(13.384 32.959)" fill="#fcfefe"/>
      </g>
      <circle id="椭圆_34" data-name="椭圆 34" cx="2.254" cy="2.254" r="2.254" transform="translate(1348.598 1006.928)" fill="#f94100"/>
      <circle id="椭圆_35" data-name="椭圆 35" cx="4.197" cy="4.197" r="4.197" transform="translate(1350.852 996.59)" fill="#dc8000"/>
    </g>
  </g>
</svg>
